Format                           : MPEG-PS
File size                        : 689 MiB
Duration                         : 5mn 17s
Overall bit rate mode            : Variable
Overall bit rate                 : 18.2 Mbps

Video
ID                               : 224 (0xE0)
Format                           : MPEG Video
Format version                   : Version 2
Format profile                   : Main@High
Format settings, BVOP            : Yes
Format settings, Matrix          : Default
Duration                         : 5mn 17s
Bit rate mode                    : Variable
Bit rate                         : 17.5 Mbps
Maximum bit rate                 : 80.0 Mbps
Width                            : 1 920 pixels
Height                           : 1 080 pixels
Display aspect ratio             : 16:9
Frame rate                       : 29.970 fps
Color space                      : YUV
Chroma subsampling               : 4:2:0
Bit depth                        : 8 bits
Scan type                        : Interlaced
Scan order                       : Top Field First
Compression mode                 : Lossy
Bits/(Pixel*Frame)               : 0.281
Stream size                      : 661 MiB (96%)

Audio
ID                               : 189 (0xBD)-128 (0x80)
Format                           : AC-3
Format/Info                      : Audio Coding 3
Mode extension                   : CM (complete main)
Muxing mode                      : DVD-Video
Duration                         : 5mn 17s
Bit rate mode                    : Constant
Bit rate                         : 384 Kbps
Channel(s)                       : 6 channels
Channel positions                : Front: L C R, Side: L R, LFE
Sampling rate                    : 48.0 KHz
Bit depth                        : 16 bits
Compression mode                 : Lossy
Delay relative to video          : -33ms
Stream size                      : 14.5 MiB (2%)

Text #1
ID                               : 224 (0xE0)-608-1
Format                           : EIA-608
Muxing mode                      : A/53 / DTVCC Transport
Muxing mode, more info           : Muxed in Video #1
Bit rate mode                    : Constant
Stream size                      : 0.00 Byte (0%)

Text #2
ID                               : 224 (0xE0)-1
Format                           : EIA-708
Muxing mode                      : A/53 / DTVCC Transport
Muxing mode, more info           : Muxed in Video #1
Bit rate mode                    : Constant
Stream size                      : 0.00 Byte (0%)
